<svg id="Layer_1" data-name="Layer 1" xmlns="http://www.w3.org/2000/svg" width="180.6222mm" height="180.6222mm" viewBox="0 0 512 512">
  <title>icon-phone</title>
  <g id="phone">
    <g>
      <path d="M447.8,55.4H424.7a58.7983,58.7983,0,0,0-23.8-15.9V32.4a19.5164,19.5164,0,0,0-33.3-13.7,20.5008,20.5008,0,0,0-3.4,4.5h-42v-.3A17.882,17.882,0,0,0,304.3,5H171.4a17.882,17.882,0,0,0-17.9,17.9v.3h-42a18.3959,18.3959,0,0,0-3.4-4.5A19.3028,19.3028,0,0,0,94.4,13,19.5041,19.5041,0,0,0,74.9,32.4v7.1A58.417,58.417,0,0,0,36,94.5v17.4H152.7V94.5a58.5149,58.5149,0,0,0-38.9-55v-1h39.6v1.7a17.882,17.882,0,0,0,17.9,17.9H304.4a17.882,17.882,0,0,0,17.9-17.9V38.5H362v1a58.417,58.417,0,0,0-38.9,55v17.4H439.8V94.5a56.6157,56.6157,0,0,0-5.1-23.7h13.1a12.7608,12.7608,0,0,1,12.8,12.8V307.2a43.5313,43.5313,0,0,1-43.5,43.5H388.9V260.9H312.1V224H286a48.6031,48.6031,0,0,0-40.4-40.5V140a48.6527,48.6527,0,0,0,48.6-48.6V70.9H278.8V91.4a33.2674,33.2674,0,0,1-33.3,33.2H230.1a33.3317,33.3317,0,0,1-33.3-33.2V70.9H181.4V91.4A48.6526,48.6526,0,0,0,230,140v43.4a48.8284,48.8284,0,0,0-40.4,40.5H163.4v36.9H86.9V466.1H81.8a20.5,20.5,0,0,0,0,41H394a20.5,20.5,0,0,0,0-41h-5.1V365.9h28.2A58.9379,58.9379,0,0,0,476,307V83.5A28.1461,28.1461,0,0,0,447.8,55.4ZM90.3,32.3a4.0552,4.0552,0,0,1,4.1-4.1,4.005,4.005,0,0,1,2.9,1.2,4.139,4.139,0,0,1,1.2,2.9v4c-1.4-.1-2.7-.2-4.1-.2s-2.7.1-4.1.2v-4ZM137,89a49.0671,49.0671,0,0,1,.4,5.5v2h-86v-2a33.13,33.13,0,0,1,.4-5.5Zm-5.1-15.4H56.8a42.95,42.95,0,0,1,75.1,0ZM307,40.2a2.5819,2.5819,0,0,1-2.6,2.6h-133a2.5819,2.5819,0,0,1-2.6-2.6V22.8a2.5819,2.5819,0,0,1,2.6-2.6H304.5a2.5819,2.5819,0,0,1,2.6,2.6V40.2Zm70.4-7.9a4.0971,4.0971,0,0,1,4.1-4.1,4.0552,4.0552,0,0,1,4.1,4.1v4c-1.4-.1-2.7-.2-4.1-.2s-2.7.1-4.1.2Zm4.1,19.2a43.1134,43.1134,0,0,1,37.6,22.1H343.9A42.8731,42.8731,0,0,1,381.5,51.5Zm43,45h-86v-2a33.1314,33.1314,0,0,1,.4-5.5h85.3a49.0635,49.0635,0,0,1,.4,5.5l-.1,2ZM237.9,198.2A33.2412,33.2412,0,0,1,270.3,224H205.5A33.2412,33.2412,0,0,1,237.9,198.2ZM179,239.3H296.7v21.5H179Zm-76.7,36.9H373.6V466.1H102.3ZM394,481.5a5.1,5.1,0,1,1,0,10.2H81.8a5.1,5.1,0,0,1,0-10.2Z"/>
      <path d="M237.9,286.7a84.5,84.5,0,1,0,84.5,84.5A84.5873,84.5873,0,0,0,237.9,286.7Zm0,153.6A69.1,69.1,0,1,1,307,371.2,69.1807,69.1807,0,0,1,237.9,440.3Z"/>
      <path d="M237.9,332.8a38.4,38.4,0,1,0,38.4,38.4A38.41,38.41,0,0,0,237.9,332.8Zm0,61.4a23,23,0,1,1,23-23A23.0033,23.0033,0,0,1,237.9,394.2Z"/>
      <circle cx="237.9" cy="317.4" r="7.7"/>
      <circle cx="237.9" cy="424.9" r="7.7"/>
      <circle cx="211" cy="324.6" r="7.7"/>
      <circle cx="264.8" cy="417.7" r="7.7"/>
      <circle cx="191.4" cy="344.3" r="7.7"/>
      <circle cx="284.5" cy="398" r="7.7"/>
      <circle cx="184.2" cy="371.1" r="7.7"/>
      <circle cx="291.6" cy="371.1" r="7.7"/>
      <circle cx="191.4" cy="398" r="7.7"/>
      <circle cx="284.5" cy="344.3" r="7.7"/>
      <circle cx="211" cy="417.7" r="7.7"/>
      <circle cx="264.8" cy="324.6" r="7.7"/>
    </g>
  </g>
</svg>
