<svg id="Layer_1" data-name="Layer 1" xmlns="http://www.w3.org/2000/svg" width="180.6222mm" height="180.6222mm" viewBox="0 0 512 512">
  <defs>
    <style>
      .cls-1 {
        fill: none;
      }
    </style>
  </defs>
  <title>icon-email</title>
  <g id="email">
    <g>
      <path class="cls-1" d="M406.6788,288.2a6.4469,6.4469,0,0,1-5.2,2.7,8.752,8.752,0,0,1-1.6-.2l-16.9-4.4-36,57.7,134.6-49.8-64.9-20.3Z"/>
      <path class="cls-1" d="M358.4788,240.5l-28.4,10.5c-.2,2.7-.3,5.5-.6,8.5l69.4,17.8,48.8-69.8-65.5,24.2"/>
      <path class="cls-1" d="M333.2788,342l36.9-59-42-10.8a295.8084,295.8084,0,0,1-6.9,37.2Z"/>
      <path class="cls-1" d="M305.2788,266.3l5.8,15.8c.8-4.7,1.4-9.3,1.9-13.8Z"/>
      <polygon class="cls-1" points="424.379 263 490.779 283.8 462.779 208.1 424.379 263"/>
      <path d="M371.1788,222.3l-7.4,2.7h8.9C372.1788,224.2,371.7788,223.3,371.1788,222.3Z"/>
      <path d="M504.8789,285.6l-32.3-87.3a12.4593,12.4593,0,0,0-6.6-7.1,13.0258,13.0258,0,0,0-9.7-.4l-71.1,26.3-3.1,14.6,65.5-24.2-48.8,69.8-69.4-17.8c-.3,4-.8,8.3-1.3,12.7l42,10.8-36.9,59-12.1-32.6c-1.7,6.6-3.7,13.3-6.1,20l8.6,23.1a12.8624,12.8624,0,0,0,11.9,8.3,13.1719,13.1719,0,0,0,4.4-.8l157.4-58.2h0A12.5659,12.5659,0,0,0,504.8789,285.6Zm-157.9,58.4,36-57.7,16.9,4.4a8.752,8.752,0,0,0,1.6.2,6.4469,6.4469,0,0,0,5.2-2.7l10-14.3,64.9,20.3Zm77.4-81,38.4-54.9,28,75.7Z"/>
      <path d="M330.4788,240.5c-.1,3.2-.2,6.7-.4,10.5l28.4-10.5Z"/>
      <path d="M322.8789,225.1a7.7032,7.7032,0,0,0-7.7,7.7c0,3-.1,6.5-.2,10.3l48.9-18.1h-41Z"/>
      <path d="M311.0788,282.1l10.1,27.4a299.1441,299.1441,0,0,0,6.9-37.2l-15.1-3.9C312.5788,272.8,311.8789,277.4,311.0788,282.1Z"/>
      <path d="M316.3789,256.1l13.1,3.4c.2-2.9.4-5.8.6-8.5Z"/>
      <path d="M183.5788,410.7a7.79,7.79,0,0,0-6.9,4.3l-28.4,56.9a234.0372,234.0372,0,0,1-30.6-7.4l25.7-33.6a7.7562,7.7562,0,0,0-1.4-10.8,7.6661,7.6661,0,0,0-10.8,1.4l-28.8,37.6c-5.3-2.1-10.7-4.4-16.1-7.1a165.8473,165.8473,0,0,1-19.1-11.3l50.2-22.9a7.763,7.763,0,1,0-6.5-14.1l-57.4,26.2a97.5624,97.5624,0,0,1-24.8-34.7h77.7a7.7,7.7,0,0,0,0-15.4h-82.7a109.0842,109.0842,0,0,1-2.3-15.5h162.2a7.748,7.748,0,0,0,4-14.4c-1.5-.9-139.8-85.1-150.3-182.9l102.1,102.1a7.7261,7.7261,0,0,0,11,0,7.7255,7.7255,0,0,0,0-10.9l-113.5-113.5c.3-8,1-15.5,1.9-22.7l108.5,108.5a7.7261,7.7261,0,0,0,11,0,7.7255,7.7255,0,0,0,0-10.9l-116.5-116.4q2.1-10.65,4.8-19.8l108.5,108.5a7.7261,7.7261,0,0,0,11,0,7.7255,7.7255,0,0,0,0-10.9L51.7788,66.9a205.7659,205.7659,0,0,1,9.7-22.5l93.4,93.4h0l100.6,100.6a7.7075,7.7075,0,0,0,10.9-10.9l-98.1-98.1c1-32.7,17.3-48.9,26.9-55.5l43.1,107.9a7.7887,7.7887,0,0,0,7.2,4.9,9.8179,9.8179,0,0,0,2.9-.5,7.7351,7.7351,0,0,0,4.3-10.1l-46.4-116a7.7351,7.7351,0,0,0-10.1-4.3c-1.6.6-35,14.7-42.1,59.5l-88.8-89.1a7.5049,7.5049,0,0,0-6.2-2.2,7.8147,7.8147,0,0,0-5.7,3.4c-1.3,2-32.2,49.3-32.2,128.1,0,87.2,93.1,162.8,136.7,193.4h-144.5a7.7032,7.7032,0,0,0-7.7,7.7,116.6593,116.6593,0,0,0,4.7,33.4c.1.3.1.5.2.8,6.7,22.2,19.7,39.5,35.3,52.9a7.252,7.252,0,0,0,2.9,2.3c16.3,13.3,34.9,22.5,51.9,28.9a9.0786,9.0786,0,0,0,3.1,1.2,246.7636,246.7636,0,0,0,48,12.1h.9a7.61,7.61,0,0,0,6.9-4.3l28.8-57.7c73.9-1.9,109.6-48.3,126.7-96.7l-8.9-24.1C293.0788,356,260.9788,410.7,183.5788,410.7Z"/>
      <path d="M385.4788,216.1c-10.4-19.6-33.5-52.9-70.3-52.9-37.4,0-48.2,18.4-53.8,36.4a7.7492,7.7492,0,0,0,14.8,4.6c5.2-16.5,12.9-25.5,39-25.5,27.9,0,46.9,26.9,56.1,43.7l14-5.2Z"/>
      <path d="M328.1788,272.2c.5-4.4,1-8.7,1.3-12.7l-13.1-3.4,13.7-5.1c.2-3.8.4-7.3.4-10.5h28l23.7-8.8,3.1-14.6-14,5.2c.5.9,1,1.9,1.5,2.7h-8.9l-48.9,18.1c-.3,7.2-.8,15.8-1.9,25.2Z"/>
      <path d="M311.0788,282.1c-1.2,7.5-2.8,15.3-4.9,23.3l8.9,24.1c2.4-6.7,4.4-13.4,6.1-20Z"/>
      <path d="M323.0788,209.6a7.7,7.7,0,1,0,0-15.4h-.1a7.7032,7.7032,0,0,0-7.7,7.7A7.79,7.79,0,0,0,323.0788,209.6Z"/>
    </g>
  </g>
</svg>
