<svg id="Layer_1" data-name="Layer 1" xmlns="http://www.w3.org/2000/svg" width="180.6222mm" height="180.6222mm" viewBox="0 0 512 512">
  <title>icon-facebook</title>
  <g id="facebook">
    <g>
      <g>
        <path d="M263.8,387.7V149a8,8,0,0,0-16,0V387.6a8.0235,8.0235,0,0,0,8,8A7.9384,7.9384,0,0,0,263.8,387.7Z"/>
        <path d="M495.5,89c-16.9,0-37.9-7.3-60.2-15-28.2-9.8-60.2-20.9-93.4-20.9-38.4,0-61.8,16.8-74.7,30.9a97.2606,97.2606,0,0,0-11.4,15.3A97.2619,97.2619,0,0,0,244.4,84c-12.9-14.1-36.3-30.9-74.7-30.9-33.2,0-65.2,11.1-93.4,20.9C54,81.7,33,89,16.1,89a8.0235,8.0235,0,0,0-8,8V418.9a8.0235,8.0235,0,0,0,8,8c19.6,0,41.9-7.7,65.5-15.9,27-9.4,57.7-20,88.2-20,26.1,0,47.3,8.7,62.9,25.7a7.9981,7.9981,0,0,0,11.8-10.8c-12.9-14.1-36.3-30.9-74.7-30.9-33.2,0-65.2,11.1-93.4,20.9-18.9,6.5-36.9,12.8-52.2,14.5V104.6c17.6-1.7,37-8.4,57.5-15.5,27-9.4,57.7-20,88.2-20,61.7,0,77.8,49,78.5,51a7.83,7.83,0,0,0,7.6,5.6,7.9522,7.9522,0,0,0,7.6-5.6c.2-.5,16.4-51,78.5-51,30.5,0,61.1,10.6,88.2,20,20.4,7.1,39.9,13.8,57.5,15.5V410.4c-15.3-1.7-33.3-8-52.2-14.5-28.2-9.8-60.2-20.9-93.4-20.9-38.4,0-61.8,16.8-74.7,30.9a7.9981,7.9981,0,0,0,11.8,10.8c15.6-17.1,36.8-25.7,62.9-25.7,30.5,0,61.1,10.6,88.2,20,23.6,8.2,45.9,15.9,65.5,15.9a8.0235,8.0235,0,0,0,8-8V97A8.5858,8.5858,0,0,0,495.5,89Z"/>
        <path d="M495.5,442.9c-16.9,0-37.9-7.3-60.2-15-28.2-9.8-60.2-20.9-93.4-20.9-36.1,0-58.9,14.8-72.2,28.3H242c-13.4-13.5-36.2-28.3-72.3-28.3-33.2,0-65.2,11.1-93.4,20.9-22.3,7.7-43.3,15-60.2,15a8,8,0,0,0,0,16c19.6,0,41.9-7.7,65.5-15.9,27-9.4,57.7-20,88.2-20,26.1,0,47.3,8.7,62.9,25.7a7.8837,7.8837,0,0,0,5.9,2.6h34.6a7.8836,7.8836,0,0,0,5.9-2.6C294.7,431.6,315.9,423,342,423c30.5,0,61.1,10.6,88.2,20,23.6,8.2,45.9,15.9,65.5,15.9a8.0235,8.0235,0,0,0,8-8A8.1957,8.1957,0,0,0,495.5,442.9Z"/>
      </g>
      <path d="M378.7,321.6c-21.3-.6-45-14.3-62.8-25.7-18.8-12.1-26.2-33.5-26.2-55.2,0-25.1,11.2-50.5,26.1-70.4,16.6-22.2,36.6-27.4,62.9-26.5,47.7,1.6,89.3,61.8,88.9,106.9-.2,22.1-7.9,43.3-26.1,56.6C421.2,322.1,402.8,322.3,378.7,321.6Zm0-171c-23.2-.6-43,3.4-57.9,22.8-14.3,18.5-24.1,42.9-24.1,66.5-.1,39.8,43.8,73.7,82.1,74.9,23,.7,38.5.8,57.9-13.9,16.5-12.4,24.2-30.1,24.2-50.8C460.7,208.2,424.4,151.8,378.7,150.6Zm20.5,48.6c-5.6-1.5-10.2,2.1-10.2,7.8s4.6,11.2,10.2,12.7,10.2-2,10.2-7.6C409.5,206.4,404.9,200.7,399.2,199.2Zm-42.7-5.6a8.8346,8.8346,0,0,0-10.3,9,12.0822,12.0822,0,0,0,10.3,11.6,8.8346,8.8346,0,0,0,10.3-9A12.0821,12.0821,0,0,0,356.5,193.6Zm66.3,71.8a5.1943,5.1943,0,0,0,.4-7.3,5.5689,5.5689,0,0,0-7.3-.9c-10.8,7.8-24.5,7.3-37.1,6.9-14.2-.5-27.3-8.3-37.2-18.1a5.0156,5.0156,0,0,0-7.3,0,5.1144,5.1144,0,0,0,.4,7.3c11.7,10.4,27.7,21.2,44.1,21C393.5,274.9,411.2,276.7,422.8,265.4Z"/>
      <path d="M140.6,324.1c-42.9,2.8-85.6-11.2-88.1-62.9-2.2-45.5,35.1-94.6,79.4-104.4,48.2-10.6,86.5,46.6,88.7,88.6C222.8,292,182.3,321.4,140.6,324.1Zm-8.4-160.9c-41.6,8.9-74.7,55.4-73.2,97.2,1.6,45.9,43.6,59.7,81.3,57.1,38.2-2.6,75.9-30.7,73.7-72.9C212,205.4,177.3,153.6,132.2,163.2Zm22.9,43.3a9.7767,9.7767,0,0,0-9.2,10.4,9.4985,9.4985,0,0,0,10.2,9,9.689,9.689,0,0,0,9.3-10A10.1138,10.1138,0,0,0,155.1,206.5Zm-40.6,6.3a12.4506,12.4506,0,0,0-8.9,12c.2,5.3,4.7,8.4,9.8,7.1,5.2-1.3,9.2-6.5,8.9-11.7A7.6125,7.6125,0,0,0,114.5,212.8Zm22.7,60.8c7-1,9.4-6.6,10.9-9.9.2-.5.5-1.1.7-1.6.6.6,1.4,1.6,1.9,2.2,2.4,3,5.9,7.4,12.4,7.1,6.9-.3,9.2-5.6,10.4-8.5a20.2848,20.2848,0,0,1,1.1-2.4c3.8-.1,9.9,3.8,11.7,5.1,2.3,1.8,5.3,1.8,6.6-.2s.6-5.2-1.8-7.1c-1-.8-9.7-7.6-17.3-7.5-6.1.1-8.1,5.1-9.3,8-1.2,2.8-1.4,2.9-1.9,2.9-1.2,0-2.1-.8-4.2-3.5s-5-6.5-10.1-6.2c-5.8.3-7.9,5.3-9.1,8.2-1.4,3.2-1.7,3.6-2.8,3.7h-.1a6.4917,6.4917,0,0,1-.7-2.1c-.8-2.5-2.8-8.6-9.5-7.4h-.2c-5.3,1-8,5.5-9.9,8.7-1.7,2.7-2.5,4-3.7,4.3-.5.3-1.2-.3-2.8-2.4-1.9-2.5-4.6-6.3-10.6-4.7a.3674.3674,0,0,0-.3.1c-8.3,2.3-15,11.4-15.7,12.4-1.8,2.5-1.7,5.6.2,6.8,2,1.3,5,.3,6.8-2.2,1.5-2.1,5.7-6.5,9.2-7.5h.1c.5.1,1.5,1.4,2.2,2.3,1.9,2.4,5,6.4,11.2,4.8h.2c5.9-1.6,8.9-6.4,10.9-9.6a31.5484,31.5484,0,0,1,1.9-2.7,9.4365,9.4365,0,0,0,.3.9c.8,2.7,3.1,8.8,10.7,8.1A1.2692,1.2692,0,0,1,137.2,273.6Z"/>
    </g>
  </g>
</svg>
