<?xml version="1.0" encoding="utf-8"?>
<svg xmlns="http://www.w3.org/2000/svg">
<symbol id="icon-cross" viewBox="0 0 31.1 31.1"><path d="M15.6 16.3L1.4 30.4l-.7-.7 14.1-14.1L.7 1.4l.7-.7 14.2 14.1L29.7.7l.7.7-14.1 14.2 14.1 14.1-.7.7z"/><path d="M15.6 16.3L1.4 30.4l-.7-.7 14.1-14.1L.7 1.4l.7-.7 14.2 14.1L29.7.7l.7.7-14.1 14.2 14.1 14.1-.7.7z"/>
</symbol>
<symbol id="icon-email" viewBox="0 0 512 512">
  <defs>
    <style>
      .cls-1 {
        fill: none;
      }
    </style>
  </defs>
  <title>icon-email</title>
  <g id="email">
    <g>
      <path class="cls-1" d="M406.6788,288.2a6.4469,6.4469,0,0,1-5.2,2.7,8.752,8.752,0,0,1-1.6-.2l-16.9-4.4-36,57.7,134.6-49.8-64.9-20.3Z"/>
      <path class="cls-1" d="M358.4788,240.5l-28.4,10.5c-.2,2.7-.3,5.5-.6,8.5l69.4,17.8,48.8-69.8-65.5,24.2"/>
      <path class="cls-1" d="M333.2788,342l36.9-59-42-10.8a295.8084,295.8084,0,0,1-6.9,37.2Z"/>
      <path class="cls-1" d="M305.2788,266.3l5.8,15.8c.8-4.7,1.4-9.3,1.9-13.8Z"/>
      <polygon class="cls-1" points="424.379 263 490.779 283.8 462.779 208.1 424.379 263"/>
      <path d="M371.1788,222.3l-7.4,2.7h8.9C372.1788,224.2,371.7788,223.3,371.1788,222.3Z"/>
      <path d="M504.8789,285.6l-32.3-87.3a12.4593,12.4593,0,0,0-6.6-7.1,13.0258,13.0258,0,0,0-9.7-.4l-71.1,26.3-3.1,14.6,65.5-24.2-48.8,69.8-69.4-17.8c-.3,4-.8,8.3-1.3,12.7l42,10.8-36.9,59-12.1-32.6c-1.7,6.6-3.7,13.3-6.1,20l8.6,23.1a12.8624,12.8624,0,0,0,11.9,8.3,13.1719,13.1719,0,0,0,4.4-.8l157.4-58.2h0A12.5659,12.5659,0,0,0,504.8789,285.6Zm-157.9,58.4,36-57.7,16.9,4.4a8.752,8.752,0,0,0,1.6.2,6.4469,6.4469,0,0,0,5.2-2.7l10-14.3,64.9,20.3Zm77.4-81,38.4-54.9,28,75.7Z"/>
      <path d="M330.4788,240.5c-.1,3.2-.2,6.7-.4,10.5l28.4-10.5Z"/>
      <path d="M322.8789,225.1a7.7032,7.7032,0,0,0-7.7,7.7c0,3-.1,6.5-.2,10.3l48.9-18.1h-41Z"/>
      <path d="M311.0788,282.1l10.1,27.4a299.1441,299.1441,0,0,0,6.9-37.2l-15.1-3.9C312.5788,272.8,311.8789,277.4,311.0788,282.1Z"/>
      <path d="M316.3789,256.1l13.1,3.4c.2-2.9.4-5.8.6-8.5Z"/>
      <path d="M183.5788,410.7a7.79,7.79,0,0,0-6.9,4.3l-28.4,56.9a234.0372,234.0372,0,0,1-30.6-7.4l25.7-33.6a7.7562,7.7562,0,0,0-1.4-10.8,7.6661,7.6661,0,0,0-10.8,1.4l-28.8,37.6c-5.3-2.1-10.7-4.4-16.1-7.1a165.8473,165.8473,0,0,1-19.1-11.3l50.2-22.9a7.763,7.763,0,1,0-6.5-14.1l-57.4,26.2a97.5624,97.5624,0,0,1-24.8-34.7h77.7a7.7,7.7,0,0,0,0-15.4h-82.7a109.0842,109.0842,0,0,1-2.3-15.5h162.2a7.748,7.748,0,0,0,4-14.4c-1.5-.9-139.8-85.1-150.3-182.9l102.1,102.1a7.7261,7.7261,0,0,0,11,0,7.7255,7.7255,0,0,0,0-10.9l-113.5-113.5c.3-8,1-15.5,1.9-22.7l108.5,108.5a7.7261,7.7261,0,0,0,11,0,7.7255,7.7255,0,0,0,0-10.9l-116.5-116.4q2.1-10.65,4.8-19.8l108.5,108.5a7.7261,7.7261,0,0,0,11,0,7.7255,7.7255,0,0,0,0-10.9L51.7788,66.9a205.7659,205.7659,0,0,1,9.7-22.5l93.4,93.4h0l100.6,100.6a7.7075,7.7075,0,0,0,10.9-10.9l-98.1-98.1c1-32.7,17.3-48.9,26.9-55.5l43.1,107.9a7.7887,7.7887,0,0,0,7.2,4.9,9.8179,9.8179,0,0,0,2.9-.5,7.7351,7.7351,0,0,0,4.3-10.1l-46.4-116a7.7351,7.7351,0,0,0-10.1-4.3c-1.6.6-35,14.7-42.1,59.5l-88.8-89.1a7.5049,7.5049,0,0,0-6.2-2.2,7.8147,7.8147,0,0,0-5.7,3.4c-1.3,2-32.2,49.3-32.2,128.1,0,87.2,93.1,162.8,136.7,193.4h-144.5a7.7032,7.7032,0,0,0-7.7,7.7,116.6593,116.6593,0,0,0,4.7,33.4c.1.3.1.5.2.8,6.7,22.2,19.7,39.5,35.3,52.9a7.252,7.252,0,0,0,2.9,2.3c16.3,13.3,34.9,22.5,51.9,28.9a9.0786,9.0786,0,0,0,3.1,1.2,246.7636,246.7636,0,0,0,48,12.1h.9a7.61,7.61,0,0,0,6.9-4.3l28.8-57.7c73.9-1.9,109.6-48.3,126.7-96.7l-8.9-24.1C293.0788,356,260.9788,410.7,183.5788,410.7Z"/>
      <path d="M385.4788,216.1c-10.4-19.6-33.5-52.9-70.3-52.9-37.4,0-48.2,18.4-53.8,36.4a7.7492,7.7492,0,0,0,14.8,4.6c5.2-16.5,12.9-25.5,39-25.5,27.9,0,46.9,26.9,56.1,43.7l14-5.2Z"/>
      <path d="M328.1788,272.2c.5-4.4,1-8.7,1.3-12.7l-13.1-3.4,13.7-5.1c.2-3.8.4-7.3.4-10.5h28l23.7-8.8,3.1-14.6-14,5.2c.5.9,1,1.9,1.5,2.7h-8.9l-48.9,18.1c-.3,7.2-.8,15.8-1.9,25.2Z"/>
      <path d="M311.0788,282.1c-1.2,7.5-2.8,15.3-4.9,23.3l8.9,24.1c2.4-6.7,4.4-13.4,6.1-20Z"/>
      <path d="M323.0788,209.6a7.7,7.7,0,1,0,0-15.4h-.1a7.7032,7.7032,0,0,0-7.7,7.7A7.79,7.79,0,0,0,323.0788,209.6Z"/>
    </g>
  </g>

</symbol>
<symbol id="icon-facebook" viewBox="0 0 512 512">
  <title>icon-facebook</title>
  <g id="facebook">
    <g>
      <g>
        <path d="M263.8,387.7V149a8,8,0,0,0-16,0V387.6a8.0235,8.0235,0,0,0,8,8A7.9384,7.9384,0,0,0,263.8,387.7Z"/>
        <path d="M495.5,89c-16.9,0-37.9-7.3-60.2-15-28.2-9.8-60.2-20.9-93.4-20.9-38.4,0-61.8,16.8-74.7,30.9a97.2606,97.2606,0,0,0-11.4,15.3A97.2619,97.2619,0,0,0,244.4,84c-12.9-14.1-36.3-30.9-74.7-30.9-33.2,0-65.2,11.1-93.4,20.9C54,81.7,33,89,16.1,89a8.0235,8.0235,0,0,0-8,8V418.9a8.0235,8.0235,0,0,0,8,8c19.6,0,41.9-7.7,65.5-15.9,27-9.4,57.7-20,88.2-20,26.1,0,47.3,8.7,62.9,25.7a7.9981,7.9981,0,0,0,11.8-10.8c-12.9-14.1-36.3-30.9-74.7-30.9-33.2,0-65.2,11.1-93.4,20.9-18.9,6.5-36.9,12.8-52.2,14.5V104.6c17.6-1.7,37-8.4,57.5-15.5,27-9.4,57.7-20,88.2-20,61.7,0,77.8,49,78.5,51a7.83,7.83,0,0,0,7.6,5.6,7.9522,7.9522,0,0,0,7.6-5.6c.2-.5,16.4-51,78.5-51,30.5,0,61.1,10.6,88.2,20,20.4,7.1,39.9,13.8,57.5,15.5V410.4c-15.3-1.7-33.3-8-52.2-14.5-28.2-9.8-60.2-20.9-93.4-20.9-38.4,0-61.8,16.8-74.7,30.9a7.9981,7.9981,0,0,0,11.8,10.8c15.6-17.1,36.8-25.7,62.9-25.7,30.5,0,61.1,10.6,88.2,20,23.6,8.2,45.9,15.9,65.5,15.9a8.0235,8.0235,0,0,0,8-8V97A8.5858,8.5858,0,0,0,495.5,89Z"/>
        <path d="M495.5,442.9c-16.9,0-37.9-7.3-60.2-15-28.2-9.8-60.2-20.9-93.4-20.9-36.1,0-58.9,14.8-72.2,28.3H242c-13.4-13.5-36.2-28.3-72.3-28.3-33.2,0-65.2,11.1-93.4,20.9-22.3,7.7-43.3,15-60.2,15a8,8,0,0,0,0,16c19.6,0,41.9-7.7,65.5-15.9,27-9.4,57.7-20,88.2-20,26.1,0,47.3,8.7,62.9,25.7a7.8837,7.8837,0,0,0,5.9,2.6h34.6a7.8836,7.8836,0,0,0,5.9-2.6C294.7,431.6,315.9,423,342,423c30.5,0,61.1,10.6,88.2,20,23.6,8.2,45.9,15.9,65.5,15.9a8.0235,8.0235,0,0,0,8-8A8.1957,8.1957,0,0,0,495.5,442.9Z"/>
      </g>
      <path d="M378.7,321.6c-21.3-.6-45-14.3-62.8-25.7-18.8-12.1-26.2-33.5-26.2-55.2,0-25.1,11.2-50.5,26.1-70.4,16.6-22.2,36.6-27.4,62.9-26.5,47.7,1.6,89.3,61.8,88.9,106.9-.2,22.1-7.9,43.3-26.1,56.6C421.2,322.1,402.8,322.3,378.7,321.6Zm0-171c-23.2-.6-43,3.4-57.9,22.8-14.3,18.5-24.1,42.9-24.1,66.5-.1,39.8,43.8,73.7,82.1,74.9,23,.7,38.5.8,57.9-13.9,16.5-12.4,24.2-30.1,24.2-50.8C460.7,208.2,424.4,151.8,378.7,150.6Zm20.5,48.6c-5.6-1.5-10.2,2.1-10.2,7.8s4.6,11.2,10.2,12.7,10.2-2,10.2-7.6C409.5,206.4,404.9,200.7,399.2,199.2Zm-42.7-5.6a8.8346,8.8346,0,0,0-10.3,9,12.0822,12.0822,0,0,0,10.3,11.6,8.8346,8.8346,0,0,0,10.3-9A12.0821,12.0821,0,0,0,356.5,193.6Zm66.3,71.8a5.1943,5.1943,0,0,0,.4-7.3,5.5689,5.5689,0,0,0-7.3-.9c-10.8,7.8-24.5,7.3-37.1,6.9-14.2-.5-27.3-8.3-37.2-18.1a5.0156,5.0156,0,0,0-7.3,0,5.1144,5.1144,0,0,0,.4,7.3c11.7,10.4,27.7,21.2,44.1,21C393.5,274.9,411.2,276.7,422.8,265.4Z"/>
      <path d="M140.6,324.1c-42.9,2.8-85.6-11.2-88.1-62.9-2.2-45.5,35.1-94.6,79.4-104.4,48.2-10.6,86.5,46.6,88.7,88.6C222.8,292,182.3,321.4,140.6,324.1Zm-8.4-160.9c-41.6,8.9-74.7,55.4-73.2,97.2,1.6,45.9,43.6,59.7,81.3,57.1,38.2-2.6,75.9-30.7,73.7-72.9C212,205.4,177.3,153.6,132.2,163.2Zm22.9,43.3a9.7767,9.7767,0,0,0-9.2,10.4,9.4985,9.4985,0,0,0,10.2,9,9.689,9.689,0,0,0,9.3-10A10.1138,10.1138,0,0,0,155.1,206.5Zm-40.6,6.3a12.4506,12.4506,0,0,0-8.9,12c.2,5.3,4.7,8.4,9.8,7.1,5.2-1.3,9.2-6.5,8.9-11.7A7.6125,7.6125,0,0,0,114.5,212.8Zm22.7,60.8c7-1,9.4-6.6,10.9-9.9.2-.5.5-1.1.7-1.6.6.6,1.4,1.6,1.9,2.2,2.4,3,5.9,7.4,12.4,7.1,6.9-.3,9.2-5.6,10.4-8.5a20.2848,20.2848,0,0,1,1.1-2.4c3.8-.1,9.9,3.8,11.7,5.1,2.3,1.8,5.3,1.8,6.6-.2s.6-5.2-1.8-7.1c-1-.8-9.7-7.6-17.3-7.5-6.1.1-8.1,5.1-9.3,8-1.2,2.8-1.4,2.9-1.9,2.9-1.2,0-2.1-.8-4.2-3.5s-5-6.5-10.1-6.2c-5.8.3-7.9,5.3-9.1,8.2-1.4,3.2-1.7,3.6-2.8,3.7h-.1a6.4917,6.4917,0,0,1-.7-2.1c-.8-2.5-2.8-8.6-9.5-7.4h-.2c-5.3,1-8,5.5-9.9,8.7-1.7,2.7-2.5,4-3.7,4.3-.5.3-1.2-.3-2.8-2.4-1.9-2.5-4.6-6.3-10.6-4.7a.3674.3674,0,0,0-.3.1c-8.3,2.3-15,11.4-15.7,12.4-1.8,2.5-1.7,5.6.2,6.8,2,1.3,5,.3,6.8-2.2,1.5-2.1,5.7-6.5,9.2-7.5h.1c.5.1,1.5,1.4,2.2,2.3,1.9,2.4,5,6.4,11.2,4.8h.2c5.9-1.6,8.9-6.4,10.9-9.6a31.5484,31.5484,0,0,1,1.9-2.7,9.4365,9.4365,0,0,0,.3.9c.8,2.7,3.1,8.8,10.7,8.1A1.2692,1.2692,0,0,1,137.2,273.6Z"/>
    </g>
  </g>

</symbol>
<symbol id="icon-phone" viewBox="0 0 512 512">
  <title>icon-phone</title>
  <g id="phone">
    <g>
      <path d="M447.8,55.4H424.7a58.7983,58.7983,0,0,0-23.8-15.9V32.4a19.5164,19.5164,0,0,0-33.3-13.7,20.5008,20.5008,0,0,0-3.4,4.5h-42v-.3A17.882,17.882,0,0,0,304.3,5H171.4a17.882,17.882,0,0,0-17.9,17.9v.3h-42a18.3959,18.3959,0,0,0-3.4-4.5A19.3028,19.3028,0,0,0,94.4,13,19.5041,19.5041,0,0,0,74.9,32.4v7.1A58.417,58.417,0,0,0,36,94.5v17.4H152.7V94.5a58.5149,58.5149,0,0,0-38.9-55v-1h39.6v1.7a17.882,17.882,0,0,0,17.9,17.9H304.4a17.882,17.882,0,0,0,17.9-17.9V38.5H362v1a58.417,58.417,0,0,0-38.9,55v17.4H439.8V94.5a56.6157,56.6157,0,0,0-5.1-23.7h13.1a12.7608,12.7608,0,0,1,12.8,12.8V307.2a43.5313,43.5313,0,0,1-43.5,43.5H388.9V260.9H312.1V224H286a48.6031,48.6031,0,0,0-40.4-40.5V140a48.6527,48.6527,0,0,0,48.6-48.6V70.9H278.8V91.4a33.2674,33.2674,0,0,1-33.3,33.2H230.1a33.3317,33.3317,0,0,1-33.3-33.2V70.9H181.4V91.4A48.6526,48.6526,0,0,0,230,140v43.4a48.8284,48.8284,0,0,0-40.4,40.5H163.4v36.9H86.9V466.1H81.8a20.5,20.5,0,0,0,0,41H394a20.5,20.5,0,0,0,0-41h-5.1V365.9h28.2A58.9379,58.9379,0,0,0,476,307V83.5A28.1461,28.1461,0,0,0,447.8,55.4ZM90.3,32.3a4.0552,4.0552,0,0,1,4.1-4.1,4.005,4.005,0,0,1,2.9,1.2,4.139,4.139,0,0,1,1.2,2.9v4c-1.4-.1-2.7-.2-4.1-.2s-2.7.1-4.1.2v-4ZM137,89a49.0671,49.0671,0,0,1,.4,5.5v2h-86v-2a33.13,33.13,0,0,1,.4-5.5Zm-5.1-15.4H56.8a42.95,42.95,0,0,1,75.1,0ZM307,40.2a2.5819,2.5819,0,0,1-2.6,2.6h-133a2.5819,2.5819,0,0,1-2.6-2.6V22.8a2.5819,2.5819,0,0,1,2.6-2.6H304.5a2.5819,2.5819,0,0,1,2.6,2.6V40.2Zm70.4-7.9a4.0971,4.0971,0,0,1,4.1-4.1,4.0552,4.0552,0,0,1,4.1,4.1v4c-1.4-.1-2.7-.2-4.1-.2s-2.7.1-4.1.2Zm4.1,19.2a43.1134,43.1134,0,0,1,37.6,22.1H343.9A42.8731,42.8731,0,0,1,381.5,51.5Zm43,45h-86v-2a33.1314,33.1314,0,0,1,.4-5.5h85.3a49.0635,49.0635,0,0,1,.4,5.5l-.1,2ZM237.9,198.2A33.2412,33.2412,0,0,1,270.3,224H205.5A33.2412,33.2412,0,0,1,237.9,198.2ZM179,239.3H296.7v21.5H179Zm-76.7,36.9H373.6V466.1H102.3ZM394,481.5a5.1,5.1,0,1,1,0,10.2H81.8a5.1,5.1,0,0,1,0-10.2Z"/>
      <path d="M237.9,286.7a84.5,84.5,0,1,0,84.5,84.5A84.5873,84.5873,0,0,0,237.9,286.7Zm0,153.6A69.1,69.1,0,1,1,307,371.2,69.1807,69.1807,0,0,1,237.9,440.3Z"/>
      <path d="M237.9,332.8a38.4,38.4,0,1,0,38.4,38.4A38.41,38.41,0,0,0,237.9,332.8Zm0,61.4a23,23,0,1,1,23-23A23.0033,23.0033,0,0,1,237.9,394.2Z"/>
      <circle cx="237.9" cy="317.4" r="7.7"/>
      <circle cx="237.9" cy="424.9" r="7.7"/>
      <circle cx="211" cy="324.6" r="7.7"/>
      <circle cx="264.8" cy="417.7" r="7.7"/>
      <circle cx="191.4" cy="344.3" r="7.7"/>
      <circle cx="284.5" cy="398" r="7.7"/>
      <circle cx="184.2" cy="371.1" r="7.7"/>
      <circle cx="291.6" cy="371.1" r="7.7"/>
      <circle cx="191.4" cy="398" r="7.7"/>
      <circle cx="284.5" cy="344.3" r="7.7"/>
      <circle cx="211" cy="417.7" r="7.7"/>
      <circle cx="264.8" cy="324.6" r="7.7"/>
    </g>
  </g>

</symbol></svg>